<svg xmlns="http://www.w3.org/2000/svg" version="1.1" xmlns:xlink="http://www.w3.org/1999/xlink" xmlns:svgjs="http://svgjs.com/svgjs" width="1440" height="250" preserveAspectRatio="none" viewBox="0 0 1440 250"><g mask="url(&quot;#SvgjsMask1062&quot;)" fill="none"><path d="M28 250L278 0L344 0L94 250z" fill="url(#SvgjsLinearGradient1063)"></path><path d="M260.6 250L510.6 0L716.1 0L466.1 250z" fill="url(#SvgjsLinearGradient1063)"></path><path d="M492.20000000000005 250L742.2 0L979.2 0L729.2 250z" fill="url(#SvgjsLinearGradient1063)"></path><path d="M718.8000000000001 250L968.8000000000001 0L1300.3000000000002 0L1050.3000000000002 250z" fill="url(#SvgjsLinearGradient1063)"></path><path d="M1433 250L1183 0L904 0L1154 250z" fill="url(#SvgjsLinearGradient1064)"></path><path d="M1191.4 250L941.4000000000001 0L884.4000000000001 0L1134.4 250z" fill="url(#SvgjsLinearGradient1064)"></path><path d="M948.8 250L698.8 0L526.3 0L776.3 250z" fill="url(#SvgjsLinearGradient1064)"></path><path d="M716.1999999999999 250L466.19999999999993 0L413.69999999999993 0L663.6999999999999 250z" fill="url(#SvgjsLinearGradient1064)"></path><path d="M1217.5733473092585 250L1440 27.573347309258423L1440 250z" fill="url(#SvgjsLinearGradient1063)"></path><path d="M0 250L222.42665269074158 250L 0 27.573347309258423z" fill="url(#SvgjsLinearGradient1064)"></path></g><defs><mask id="SvgjsMask1062"><rect width="1440" height="250" fill="#ffffff"></rect></mask><linearGradient x1="0%" y1="100%" x2="100%" y2="0%" id="SvgjsLinearGradient1063"><stop stop-color="rgba(37, 107, 145, 1)" offset="0"></stop><stop stop-opacity="0" stop-color="rgba(37, 107, 145, 1)" offset="0.66"></stop></linearGradient><linearGradient x1="100%" y1="100%" x2="0%" y2="0%" id="SvgjsLinearGradient1064"><stop stop-color="rgba(37, 107, 145, 1)" offset="0"></stop><stop stop-opacity="0" stop-color="rgba(37, 107, 145, 1)" offset="0.66"></stop></linearGradient></defs></svg>