<svg xmlns="http://www.w3.org/2000/svg" version="1.1" xmlns:xlink="http://www.w3.org/1999/xlink" xmlns:svgjs="http://svgjs.com/svgjs" width="1440" height="560" preserveAspectRatio="none" viewBox="0 0 1440 560"><g mask="url(&quot;#SvgjsMask2021&quot;)" fill="none"><rect width="1440" height="560" x="0" y="0" fill="url(#SvgjsLinearGradient2022)"></rect><path d="M -386.908311102537,376 C -290.91,332.2 -98.91,152.8 93.091688897463,157 C 285.09,161.2 381.09,406.4 573.091688897463,397 C 765.09,387.6 861.09,128.2 1053.091688897463,110 C 1245.09,91.8 1455.71,291.4 1533.091688897463,306 C 1610.47,320.6 1458.62,207.6 1440,183" stroke="rgba(96, 193, 255, 1)" stroke-width="2"></path><path d="M -480.03048500214226,258 C -384.03,264 -192.03,301.6 -0.0304850021422709,288 C 191.97,274.4 287.97,183 479.96951499785774,190 C 671.97,197 767.97,324 959.9695149978577,323 C 1151.97,322 1343.96,190.6 1439.9695149978577,185 C 1535.98,179.4 1439.99,273 1440,295" stroke="rgba(96, 193, 255, 1)" stroke-width="2"></path><path d="M -950.3760536677521,421 C -854.38,371.2 -662.38,191.6 -470.3760536677521,172 C -278.38,152.4 -182.38,328.8 9.623946332247897,323 C 201.62,317.2 297.62,140.2 489.6239463322479,143 C 681.62,145.8 779.55,336.2 969.6239463322479,337 C 1159.7,337.8 1345.92,185 1440,147" stroke="rgba(96, 193, 255, 1)" stroke-width="2"></path><path d="M -914.1922678837632,106 C -818.19,143.8 -626.19,268.2 -434.1922678837632,295 C -242.19,321.8 -146.19,209.6 45.80773211623682,240 C 237.81,270.4 333.81,461.4 525.8077321162368,447 C 717.81,432.6 822.97,180 1005.8077321162368,168 C 1188.65,156 1353.16,343.2 1440,387" stroke="rgba(96, 193, 255, 1)" stroke-width="2"></path><path d="M -265.87779411112285,283 C -169.88,267.8 22.12,192 214.12220588887715,207 C 406.12,222 502.12,371.4 694.1222058888771,358 C 886.12,344.6 982.12,152.6 1174.122205888877,140 C 1366.12,127.4 1600.95,297.6 1654.122205888877,295 C 1707.3,292.4 1482.82,160.6 1440,127" stroke="rgba(96, 193, 255, 1)" stroke-width="2"></path><path d="M -862.6106651894903,354 C -766.61,307.4 -574.61,134.6 -382.6106651894903,121 C -190.61,107.4 -94.61,285.6 97.3893348105097,286 C 289.39,286.4 385.39,123.4 577.3893348105097,123 C 769.39,122.6 884.87,253.8 1057.3893348105098,284 C 1229.91,314.2 1363.48,276 1440,274" stroke="rgba(96, 193, 255, 1)" stroke-width="2"></path><path d="M -8.299203493162679,197 C 87.7,239.6 279.7,420 471.7007965068373,410 C 663.7,400 759.7,137.6 951.7007965068374,147 C 1143.7,156.4 1239.7,435.8 1431.7007965068374,457 C 1623.7,478.2 1910.04,288.2 1911.7007965068374,253 C 1913.36,217.8 1534.34,275.4 1440,281" stroke="rgba(96, 193, 255, 1)" stroke-width="2"></path><path d="M -932.8688002764925,115 C -836.87,163.4 -644.87,349.2 -452.86880027649255,357 C -260.87,364.8 -164.87,155.6 27.13119972350745,154 C 219.13,152.4 315.13,326.4 507.13119972350745,349 C 699.13,371.6 800.56,264.4 987.1311997235075,267 C 1173.7,269.6 1349.43,343 1440,362" stroke="rgba(96, 193, 255, 1)" stroke-width="2"></path><path d="M -728.7627584388979,119 C -632.76,171.2 -440.76,378.2 -248.76275843889783,380 C -56.76,381.8 39.24,134 231.23724156110217,128 C 423.24,122 519.24,326 711.2372415611021,350 C 903.24,374 1045.48,252 1191.237241561102,248 C 1336.99,244 1390.25,313.6 1440,330" stroke="rgba(96, 193, 255, 1)" stroke-width="2"></path></g><defs><mask id="SvgjsMask2021"><rect width="1440" height="560" fill="#ffffff"></rect></mask><linearGradient x1="50%" y1="100%" x2="50%" y2="0%" gradientUnits="userSpaceOnUse" id="SvgjsLinearGradient2022"><stop stop-color="rgba(62, 121, 158, 1)" offset="0.2"></stop><stop stop-color="rgba(0, 43, 71, 1)" offset="1"></stop></linearGradient></defs></svg>